<mxfile host="app.diagrams.net" agent="Mozilla/5.0 (Macintosh; Intel Mac OS X 10_15_7) AppleWebKit/605.1.15 (KHTML, like Gecko) Version/18.5 Safari/605.1.15" version="28.1.2">
  <diagram name="Side-1" id="-WN_1Zo_4YlBZV-od1Ha">
    <mxGraphModel dx="976" dy="1840" grid="1" gridSize="10" guides="1" tooltips="1" connect="1" arrows="1" fold="1" page="1" pageScale="1" pageWidth="827" pageHeight="1169" math="0" shadow="0">
      <root>
        <mxCell id="0" />
        <mxCell id="1" parent="0" />
        <mxCell id="l8sOdhCbwCag2hXBhkEn-37" value="" style="edgeStyle=orthogonalEdgeStyle;rounded=0;orthogonalLoop=1;jettySize=auto;html=1;" edge="1" parent="1" source="l8sOdhCbwCag2hXBhkEn-15" target="l8sOdhCbwCag2hXBhkEn-16">
          <mxGeometry relative="1" as="geometry" />
        </mxCell>
        <mxCell id="l8sOdhCbwCag2hXBhkEn-15" value="Weight" style="whiteSpace=wrap;html=1;aspect=fixed;" vertex="1" parent="1">
          <mxGeometry x="240" y="-820" width="60" height="60" as="geometry" />
        </mxCell>
        <mxCell id="l8sOdhCbwCag2hXBhkEn-16" value="W=input()" style="rounded=0;whiteSpace=wrap;html=1;" vertex="1" parent="1">
          <mxGeometry x="210" y="-722" width="120" height="60" as="geometry" />
        </mxCell>
        <mxCell id="l8sOdhCbwCag2hXBhkEn-29" style="edgeStyle=orthogonalEdgeStyle;rounded=0;orthogonalLoop=1;jettySize=auto;html=1;exitX=0.5;exitY=1;exitDx=0;exitDy=0;entryX=0.5;entryY=0;entryDx=0;entryDy=0;" edge="1" parent="1" source="l8sOdhCbwCag2hXBhkEn-17" target="l8sOdhCbwCag2hXBhkEn-18">
          <mxGeometry relative="1" as="geometry" />
        </mxCell>
        <mxCell id="l8sOdhCbwCag2hXBhkEn-17" value="Antal motere?" style="rounded=0;whiteSpace=wrap;html=1;" vertex="1" parent="1">
          <mxGeometry x="210" y="-622" width="120" height="60" as="geometry" />
        </mxCell>
        <mxCell id="l8sOdhCbwCag2hXBhkEn-30" style="edgeStyle=orthogonalEdgeStyle;rounded=0;orthogonalLoop=1;jettySize=auto;html=1;exitX=0.5;exitY=1;exitDx=0;exitDy=0;entryX=0;entryY=0;entryDx=0;entryDy=0;" edge="1" parent="1" source="l8sOdhCbwCag2hXBhkEn-18" target="l8sOdhCbwCag2hXBhkEn-23">
          <mxGeometry relative="1" as="geometry" />
        </mxCell>
        <mxCell id="l8sOdhCbwCag2hXBhkEn-18" value="Antal_moterer=input()" style="rounded=0;whiteSpace=wrap;html=1;" vertex="1" parent="1">
          <mxGeometry x="210" y="-540" width="120" height="60" as="geometry" />
        </mxCell>
        <mxCell id="l8sOdhCbwCag2hXBhkEn-33" style="edgeStyle=orthogonalEdgeStyle;rounded=0;orthogonalLoop=1;jettySize=auto;html=1;entryX=0;entryY=0.5;entryDx=0;entryDy=0;" edge="1" parent="1" source="l8sOdhCbwCag2hXBhkEn-20" target="l8sOdhCbwCag2hXBhkEn-24">
          <mxGeometry relative="1" as="geometry" />
        </mxCell>
        <mxCell id="l8sOdhCbwCag2hXBhkEn-20" value="output(&quot;nej&quot;)" style="rounded=0;whiteSpace=wrap;html=1;" vertex="1" parent="1">
          <mxGeometry x="90" y="-330" width="120" height="60" as="geometry" />
        </mxCell>
        <mxCell id="l8sOdhCbwCag2hXBhkEn-34" style="edgeStyle=orthogonalEdgeStyle;rounded=0;orthogonalLoop=1;jettySize=auto;html=1;exitX=0.5;exitY=1;exitDx=0;exitDy=0;entryX=1;entryY=0.5;entryDx=0;entryDy=0;" edge="1" parent="1" source="l8sOdhCbwCag2hXBhkEn-22" target="l8sOdhCbwCag2hXBhkEn-24">
          <mxGeometry relative="1" as="geometry" />
        </mxCell>
        <mxCell id="l8sOdhCbwCag2hXBhkEn-22" value="output(&quot;ja&quot;)" style="rounded=0;whiteSpace=wrap;html=1;" vertex="1" parent="1">
          <mxGeometry x="324" y="-340" width="120" height="60" as="geometry" />
        </mxCell>
        <mxCell id="l8sOdhCbwCag2hXBhkEn-31" style="edgeStyle=orthogonalEdgeStyle;rounded=0;orthogonalLoop=1;jettySize=auto;html=1;exitX=0;exitY=1;exitDx=0;exitDy=0;entryX=0.5;entryY=0;entryDx=0;entryDy=0;" edge="1" parent="1" source="l8sOdhCbwCag2hXBhkEn-23" target="l8sOdhCbwCag2hXBhkEn-20">
          <mxGeometry relative="1" as="geometry" />
        </mxCell>
        <mxCell id="l8sOdhCbwCag2hXBhkEn-32" style="edgeStyle=orthogonalEdgeStyle;rounded=0;orthogonalLoop=1;jettySize=auto;html=1;exitX=1;exitY=0;exitDx=0;exitDy=0;" edge="1" parent="1" source="l8sOdhCbwCag2hXBhkEn-23" target="l8sOdhCbwCag2hXBhkEn-22">
          <mxGeometry relative="1" as="geometry" />
        </mxCell>
        <mxCell id="l8sOdhCbwCag2hXBhkEn-23" value="&lt;span style=&quot;font-size: 9px;&quot;&gt;Wight/antal_moterer&amp;gt;5.6?&lt;/span&gt;" style="whiteSpace=wrap;html=1;aspect=fixed;rotation=45;" vertex="1" parent="1">
          <mxGeometry x="230" y="-450" width="80" height="80" as="geometry" />
        </mxCell>
        <mxCell id="l8sOdhCbwCag2hXBhkEn-24" value="End" style="ellipse;whiteSpace=wrap;html=1;" vertex="1" parent="1">
          <mxGeometry x="210" y="-200" width="120" height="80" as="geometry" />
        </mxCell>
        <mxCell id="l8sOdhCbwCag2hXBhkEn-25" value="" style="endArrow=classic;html=1;rounded=0;entryX=0.5;entryY=0;entryDx=0;entryDy=0;" edge="1" parent="1" target="l8sOdhCbwCag2hXBhkEn-16">
          <mxGeometry width="50" height="50" relative="1" as="geometry">
            <mxPoint x="270" y="-760" as="sourcePoint" />
            <mxPoint x="324" y="-810" as="targetPoint" />
          </mxGeometry>
        </mxCell>
        <mxCell id="l8sOdhCbwCag2hXBhkEn-26" value="" style="endArrow=classic;html=1;rounded=0;entryX=0.5;entryY=0;entryDx=0;entryDy=0;" edge="1" parent="1">
          <mxGeometry width="50" height="50" relative="1" as="geometry">
            <mxPoint x="264" y="-660" as="sourcePoint" />
            <mxPoint x="260" y="-622" as="targetPoint" />
          </mxGeometry>
        </mxCell>
        <mxCell id="l8sOdhCbwCag2hXBhkEn-35" value="true" style="text;html=1;align=center;verticalAlign=middle;resizable=0;points=[];autosize=1;strokeColor=none;fillColor=none;" vertex="1" parent="1">
          <mxGeometry x="354" y="-410" width="40" height="30" as="geometry" />
        </mxCell>
        <mxCell id="l8sOdhCbwCag2hXBhkEn-36" value="False" style="text;html=1;align=center;verticalAlign=middle;resizable=0;points=[];autosize=1;strokeColor=none;fillColor=none;" vertex="1" parent="1">
          <mxGeometry x="160" y="-410" width="50" height="30" as="geometry" />
        </mxCell>
      </root>
    </mxGraphModel>
  </diagram>
</mxfile>
